<?xml version="1.0" encoding="utf-8"?>
<!-- Generator: Adobe Illustrator 21.0.2, SVG Export Plug-In . SVG Version: 6.00 Build 0)  -->
<svg version="1.1" id="图层_1" xmlns="http://www.w3.org/2000/svg" xmlns:xlink="http://www.w3.org/1999/xlink" x="0px" y="0px"
	 viewBox="0 0 300 150" style="enable-background:new 0 0 300 150;" xml:space="preserve">
<style type="text/css">
	.st0{fill:#353535;}
	.st1{fill:#46A83B;}
	.st2{fill:#47A939;}
	.st3{fill:#FFFFFF;}
</style>
<g>
	<path class="st0" d="M90,65h20v20H90c-1.7,0-3-1.3-3-3V68C87,66.3,88.3,65,90,65z"/>
	<path class="st1" d="M110,65h100c1.7,0,3,1.3,3,3v14c0,1.7-1.3,3-3,3H110V65z"/>
	<g>
		<path class="st2" d="M99.5,82.2c0,0.4-0.3,0.7-0.7,0.7l0,0c-0.4,0-0.7-0.3-0.7-0.7V67.8c0-0.4,0.3-0.7,0.7-0.7l0,0
			c0.4,0,0.7,0.3,0.7,0.7V82.2z"/>
		<path class="st2" d="M102.1,80.9c0,0.4-0.3,0.7-0.7,0.7l0,0c-0.4,0-0.7-0.3-0.7-0.7V69.1c0-0.4,0.3-0.7,0.7-0.7l0,0
			c0.4,0,0.7,0.3,0.7,0.7V80.9z"/>
		<path class="st2" d="M96.9,79.6c0,0.4-0.3,0.7-0.7,0.7l0,0c-0.4,0-0.7-0.3-0.7-0.7v-9.2c0-0.4,0.3-0.7,0.7-0.7l0,0
			c0.4,0,0.7,0.3,0.7,0.7V79.6z"/>
		<path class="st2" d="M96.7,79.1c0.3,0.3,0.3,0.7,0,0.9l0,0c-0.3,0.3-0.7,0.3-0.9,0l-3.9-3.9c-0.3-0.3-0.3-0.7,0-0.9l0,0
			c0.3-0.3,0.7-0.3,0.9,0L96.7,79.1z"/>
		<path class="st2" d="M104.8,78.3c0,0.4-0.3,0.7-0.7,0.7l0,0c-0.4,0-0.7-0.3-0.7-0.7v-6.6c0-0.4,0.3-0.7,0.7-0.7l0,0
			c0.4,0,0.7,0.3,0.7,0.7V78.3z"/>
	</g>
	<g>
		<path class="st3" d="M116.2,74.9c-0.1-0.1-0.3-0.2-0.4-0.3c-0.2-0.1-0.3-0.2-0.5-0.3c-0.2-0.1-0.4-0.2-0.5-0.3
			c-0.2-0.1-0.3-0.2-0.5-0.2l0.5-0.8c0.3,0.1,0.6,0.3,1,0.5c0.3,0.2,0.6,0.3,0.9,0.5L116.2,74.9z M116.8,76.4
			c-0.2,0.6-0.3,1.1-0.5,1.8s-0.4,1.3-0.6,2c-0.2-0.1-0.4-0.2-0.6-0.3c-0.2-0.1-0.4-0.2-0.6-0.3c0.3-0.6,0.6-1.2,0.9-1.8
			c0.2-0.6,0.4-1.3,0.5-1.8c0.1,0.2,0.3,0.3,0.4,0.3S116.6,76.3,116.8,76.4z M116.6,72.3c-0.1-0.1-0.2-0.2-0.3-0.3s-0.3-0.2-0.4-0.4
			c-0.2-0.1-0.3-0.2-0.5-0.4c-0.2-0.1-0.3-0.2-0.5-0.3l0.6-0.8c0.3,0.2,0.6,0.4,0.9,0.6s0.6,0.4,0.9,0.6L116.6,72.3z M119.3,75.5
			c0,0.5,0,0.9-0.1,1.4c-0.1,0.4-0.1,0.8-0.3,1.2c-0.1,0.4-0.3,0.8-0.5,1.1s-0.4,0.8-0.7,1.2c-0.2-0.1-0.4-0.2-0.5-0.3
			c-0.2-0.1-0.4-0.1-0.6-0.2c0.4-0.4,0.7-0.8,1-1.2s0.4-0.8,0.5-1.1c0.1-0.4,0.2-0.8,0.2-1.3s0.1-1,0.1-1.6v-2.3c0-0.2,0-0.4,0-0.5
			s0-0.3,0-0.4c0.1,0,0.3,0,0.4,0s0.3,0,0.5,0s0.5,0,0.8,0s0.7,0,1.2,0s0.9,0,1.2,0c0.3,0,0.6,0,0.8,0c0.2,0,0.4,0,0.5,0
			s0.3,0,0.4,0c0,0.1-0.1,0.2-0.1,0.3c0,0.1,0,0.3,0,0.5v2.3c0,0.2,0,0.5,0,0.7s0,0.5,0.1,0.8h-1v-0.7L119.3,75.5L119.3,75.5z
			 M123.1,74.7v-2.4h-3.9v2.4H123.1z M120.9,71.4c-0.1-0.3-0.1-0.5-0.2-0.7s-0.2-0.5-0.3-0.7l1-0.3c0.1,0.2,0.2,0.5,0.3,0.7
			c0.1,0.2,0.2,0.5,0.2,0.7L120.9,71.4z"/>
		<path class="st3" d="M127.6,75.1c-0.1-0.1-0.3-0.2-0.4-0.3c-0.2-0.1-0.3-0.2-0.5-0.3c-0.2-0.1-0.4-0.2-0.6-0.3
			c-0.2-0.1-0.4-0.2-0.5-0.2l0.6-1c0.1,0.1,0.3,0.1,0.5,0.2s0.4,0.2,0.5,0.3s0.4,0.2,0.5,0.3c0.2,0.1,0.3,0.2,0.5,0.3L127.6,75.1z
			 M128.6,76.6c-0.1,0.2-0.3,0.4-0.4,0.7c-0.1,0.3-0.3,0.6-0.5,1c-0.2,0.3-0.3,0.6-0.4,1s-0.3,0.7-0.4,1c-0.2-0.2-0.4-0.4-0.6-0.5
			c-0.2-0.2-0.4-0.3-0.5-0.5c0.1-0.1,0.2-0.2,0.3-0.4c0.1-0.1,0.2-0.2,0.3-0.4c0.1-0.1,0.2-0.3,0.3-0.4c0.1-0.2,0.2-0.3,0.3-0.5
			c0.2-0.3,0.3-0.6,0.5-0.9s0.3-0.6,0.4-0.9c0.1,0.2,0.2,0.3,0.4,0.4C128.3,76.4,128.5,76.5,128.6,76.6z M128.2,72.4
			c-0.1-0.1-0.2-0.2-0.4-0.3s-0.3-0.3-0.5-0.4s-0.4-0.3-0.5-0.4c-0.2-0.1-0.3-0.2-0.5-0.3l0.8-0.8c0.1,0.1,0.3,0.2,0.5,0.3
			c0.2,0.1,0.3,0.2,0.5,0.3c0.2,0.1,0.3,0.2,0.5,0.3c0.2,0.1,0.3,0.2,0.4,0.3L128.2,72.4z M132.8,78.5c0.7,0,1.3,0,1.8,0
			s0.9,0,1.3-0.1v1.1c-0.4,0-0.9-0.1-1.5-0.1s-1.3,0-2.1,0s-1.5,0-2.1,0s-1.1,0-1.6,0.1v-1.1c0.4,0,0.8,0.1,1.4,0.1
			c0.5,0,1.1,0,1.8,0v-7c-0.5,0-0.9,0-1.3,0s-0.7,0-1,0.1v-1.1c0.4,0,0.8,0.1,1.3,0.1s1.1,0,1.8,0s1.3,0,1.7,0c0.5,0,0.9,0,1.3-0.1
			v1.1c-0.3,0-0.7-0.1-1.1-0.1c-0.4,0-0.9,0-1.5,0v7H132.8z"/>
		<path class="st3" d="M147.3,70.8l-2.4,8.7h-0.3l-2.4-6.3l-2.5,6.3h-0.3l-2.4-8.7h1l1.6,6l2.3-6h0.3l2.3,6l1.7-6H147.3z"/>
		<path class="st3" d="M154.7,76.3h-5.5c0,0.7,0.3,1.3,0.7,1.7c0.4,0.4,0.9,0.6,1.5,0.6c1,0,1.8-0.5,2.3-1.5l0.8,0.4
			c-0.4,0.7-0.8,1.2-1.3,1.5s-1.1,0.5-1.8,0.5c-1,0-1.7-0.3-2.4-1s-0.9-1.4-0.9-2.4c0-0.9,0.3-1.7,0.9-2.4c0.6-0.7,1.4-1,2.3-1
			s1.7,0.3,2.3,0.9S154.7,75.2,154.7,76.3z M153.7,75.5c-0.1-0.5-0.4-1-0.8-1.3c-0.4-0.3-0.9-0.5-1.4-0.5c-1.1,0-1.8,0.6-2.2,1.7
			h4.4V75.5z"/>
		<path class="st3" d="M157,73.9c0.7-0.7,1.4-1.1,2.4-1.1c0.9,0,1.7,0.3,2.3,1s0.9,1.4,0.9,2.4c0,0.9-0.3,1.7-1,2.4
			c-0.6,0.7-1.4,1-2.3,1s-1.7-0.4-2.3-1.2v1h-0.9v-8.7h0.9L157,73.9L157,73.9z M159.4,78.6c0.7,0,1.2-0.2,1.7-0.7s0.7-1.1,0.7-1.7
			s-0.2-1.2-0.7-1.7c-0.4-0.5-1-0.7-1.7-0.7s-1.2,0.2-1.7,0.7s-0.7,1-0.7,1.7s0.2,1.3,0.7,1.8C158.1,78.4,158.7,78.6,159.4,78.6z"/>
		<path class="st3" d="M170.6,71.5c0.7,0,1.4,0,1.9,0s1.1,0,1.5-0.1v1c-0.6,0-1.3-0.1-2.1-0.1s-1.8,0-2.9,0c-1.1,0-2.1,0-2.9,0
			c-0.8,0-1.5,0-2.1,0.1v-1c0.3,0,0.6,0,0.9,0.1s0.6,0,0.9,0c0.3,0,0.6,0,0.9,0c0.3,0,0.6,0,1,0h2c0.2-0.3,0.4-0.7,0.5-1
			s0.3-0.6,0.4-0.9c0.2,0.1,0.5,0.2,0.7,0.3c0.2,0.1,0.4,0.1,0.5,0.2c0.1,0,0.1,0,0.1,0.1c0,0-0.1,0.1-0.2,0.1c0,0-0.1,0.1-0.2,0.1
			s-0.1,0.1-0.2,0.2c-0.1,0.1-0.2,0.2-0.3,0.4S170.7,71.2,170.6,71.5z M165.6,80.1h-1c0-0.4,0.1-0.8,0.1-1.1c0-0.3,0-0.6,0-0.9v-3.7
			c0-0.3,0-0.5,0-0.7s0-0.4-0.1-0.5c0.1,0,0.3,0,0.5,0s0.4,0,0.6,0c0.2,0,0.4,0,0.6,0c0.2,0,0.4,0,0.6,0c0.4,0,0.8,0,1.1,0
			c0.4,0,0.7,0,1-0.1c0,0.1,0,0.3-0.1,0.5c0,0.2,0,0.5,0,0.7V79c0,0.2,0,0.4,0,0.5s-0.1,0.2-0.2,0.3c-0.1,0.1-0.2,0.1-0.4,0.2
			s-0.5,0.1-0.8,0.1c0-0.2-0.1-0.4-0.2-0.6c-0.1-0.2-0.2-0.4-0.3-0.6c0.2,0,0.4,0.1,0.6,0.1s0.3,0,0.3,0c0.1,0,0.1-0.1,0.2-0.1
			c0-0.1,0-0.1,0-0.3v-1h-2.4v2.5H165.6z M168,74h-2.4v1.1h2.4V74z M165.6,77h2.4v-1.1h-2.4V77z M166.9,71.3
			c-0.1-0.2-0.2-0.4-0.3-0.6s-0.2-0.4-0.4-0.6l1-0.5c0.1,0.2,0.2,0.4,0.4,0.6c0.1,0.2,0.3,0.4,0.4,0.7L166.9,71.3z M170.9,73.8
			c-0.1,0.1-0.1,0.2-0.1,0.3v2.5c0,0.4,0,0.9,0.1,1.5h-1c0-0.3,0-0.6,0.1-0.8c0-0.2,0-0.5,0-0.7v-1.9c0-0.6,0-1-0.1-1.3
			c0.2,0,0.4,0.1,0.5,0.1c0.2,0,0.3,0,0.5,0c0.1,0,0.2,0,0.2,0.1C171.1,73.7,171,73.8,170.9,73.8z M173,73.2c-0.1,0-0.1,0.1-0.1,0.1
			s0,0.1,0,0.2v5.7c0,0.2,0,0.4-0.1,0.5s-0.1,0.2-0.2,0.3s-0.3,0.2-0.5,0.2c-0.2,0.1-0.6,0.1-1,0.1c0-0.2-0.1-0.4-0.1-0.6
			c-0.1-0.2-0.2-0.4-0.3-0.6c0.5,0.1,0.8,0.1,1,0.1s0.3-0.1,0.3-0.3v-4.5c0-0.3,0-0.6,0-0.9c0-0.2,0-0.4-0.1-0.6c0.2,0,0.3,0,0.5,0
			s0.4,0,0.6,0c0.1,0,0.2,0,0.2,0.1S173.1,73.1,173,73.2z"/>
		<path class="st3" d="M179.1,72.9c-0.2,0-0.5-0.1-0.7-0.1c-0.3,0-0.6,0-1,0s-0.8,0-1.1,0s-0.6,0-0.8,0.1V72c0.4,0,1.1,0.1,1.9,0.1
			c0.4,0,0.7,0,1,0s0.5,0,0.7-0.1L179.1,72.9L179.1,72.9z M177.2,78c0.1-0.3,0.2-0.6,0.2-1s0.1-0.8,0.2-1.2c0.1-0.4,0.1-0.8,0.2-1.1
			c0-0.4,0.1-0.7,0.1-0.9c0.3,0.1,0.7,0.2,1,0.2h0.1c0,0,0,0.1-0.1,0.1c0,0-0.1,0.1-0.1,0.3c-0.1,0.2-0.1,0.5-0.2,0.8
			c-0.1,0.3-0.2,0.7-0.3,1.2c-0.1,0.4-0.2,0.9-0.3,1.4c0.4-0.1,0.8-0.3,1.2-0.4c-0.1,0.2-0.1,0.4-0.1,0.5c0,0.2,0,0.3,0,0.5
			c-0.3,0-0.5,0.1-0.8,0.2s-0.6,0.2-0.9,0.3s-0.6,0.2-0.9,0.3c-0.3,0.1-0.5,0.2-0.7,0.3c0-0.2,0-0.4-0.1-0.6c0-0.2-0.1-0.4-0.1-0.6
			C176.1,78.2,176.7,78.1,177.2,78z M176.2,76.9c0-0.2,0-0.4,0-0.7c0-0.3,0-0.5-0.1-0.8c0-0.3-0.1-0.5-0.1-0.8s-0.1-0.4-0.2-0.5
			l0.8-0.2c0,0.2,0.1,0.4,0.1,0.7c0,0.2,0.1,0.5,0.1,0.8s0.1,0.5,0.1,0.7s0.1,0.4,0.1,0.6L176.2,76.9z M177,71.9c0-0.1,0-0.3,0-0.4
			s-0.1-0.3-0.1-0.4s-0.1-0.3-0.1-0.4c-0.1-0.1-0.1-0.3-0.2-0.4l1.1-0.2c0,0.1,0,0.2,0.1,0.4c0,0.1,0.1,0.3,0.1,0.4s0.1,0.3,0.1,0.4
			s0.1,0.3,0.1,0.4L177,71.9z M181.9,74.4c-0.5,0-1,0-1.4,0s-0.7,0-1,0.1v-0.9c0.4,0,0.8,0.1,1.3,0.1s1.1,0,1.8,0s1.3,0,1.8,0
			s0.9,0,1.3-0.1v0.9c-0.3,0-0.8-0.1-1.2-0.1c-0.5,0-1,0-1.7,0c-0.1,0.2-0.1,0.4-0.2,0.6s-0.1,0.4-0.1,0.6c0.5,0,1,0,1.5,0
			s1,0,1.4-0.1c0,0.1,0,0.3,0,0.5s0,0.4,0,0.5v2.7c0,0.2,0,0.3,0,0.4s-0.1,0.2-0.2,0.3s-0.2,0.1-0.4,0.2s-0.4,0.1-0.8,0.2
			c0-0.2,0-0.3-0.1-0.5s-0.1-0.3-0.2-0.5c0.2,0,0.4,0,0.5,0s0.2,0,0.3-0.1c0.1,0,0.1-0.1,0.1-0.1c0-0.1,0-0.1,0-0.2v-2.7h-1v1.7
			c0,0.2,0,0.4,0,0.6s0,0.4,0,0.6h-0.8c0-0.2,0-0.4,0-0.6s0-0.4,0-0.6v-1.7H182v1.7c0,0.2,0,0.4,0,0.6s0,0.4,0,0.6h-0.8
			c0-0.2,0-0.4,0-0.6s0-0.4,0-0.6v-1.7h-0.8v3.9h-0.9c0-0.2,0.1-0.4,0.1-0.6s0-0.4,0-0.6v-2.4c0-0.2,0-0.4,0-0.5
			c0-0.2,0-0.3-0.1-0.5c0.3,0,0.7,0.1,1,0.1c0.4,0,0.7,0,1.2,0c0-0.2,0.1-0.4,0.1-0.6C181.8,74.7,181.8,74.6,181.9,74.4z M182,70.7
			c0-0.2,0-0.5,0-0.7s0-0.4,0-0.5c0.2,0,0.3,0.1,0.5,0.1s0.3,0,0.5,0s0.2,0.1,0.1,0.2c0,0-0.1,0.1-0.1,0.2s0,0.3,0,0.4v1.7h1.4v-1.3
			c0-0.3,0-0.6-0.1-0.7c0.1,0,0.3,0,0.5,0s0.3,0,0.4,0c0.1,0,0.1,0,0.1,0.1s0,0.1-0.1,0.2v0.1c0,0.1,0,0.2,0,0.4c0,0.2,0,0.4,0,0.7
			c0,0.3,0,0.7,0,1.2c-0.3,0-0.7,0-1.1,0c-0.4,0-0.9,0-1.6,0c-0.6,0-1.1,0-1.5,0s-0.7,0-1,0c0-0.1,0-0.3,0.1-0.4s0-0.4,0-0.5v-1
			c0-0.2,0-0.3,0-0.4s0-0.2,0-0.3c0.1,0,0.1,0,0.2,0c0.1,0,0.2,0,0.2,0c0.1,0,0.2,0,0.2,0c0.1,0,0.1,0,0.2,0c0.2,0,0.2,0,0.1,0.2
			v0.1c0,0.1,0,0.2,0,0.3s0,0.3,0,0.5s0,0.5,0,0.8h1.3v-1.4H182z"/>
		<path class="st3" d="M188.7,79.4v0.7h-1.1c0-0.2,0-0.4,0-0.6s0-0.4,0-0.6s0-0.4,0-0.6s0-0.4,0-0.6V72c0-0.4,0-0.7,0-1
			s0-0.5-0.1-0.8c0.1,0,0.3,0,0.5,0.1s0.4,0,0.8,0c0.3,0,0.8,0,1.3,0s1.2,0,2,0s1.5,0,2,0s1,0,1.3,0s0.6,0,0.8,0s0.3,0,0.5,0
			c0,0.1,0,0.2,0,0.4s0,0.3,0,0.5s0,0.3,0,0.5s0,0.3,0,0.5V78c0,0.3,0,0.7,0,1.1s0,0.7,0.1,1.1h-1.1v-0.6h-7V79.4z M195.6,78.6v-7.5
			h-6.9v7.5H195.6z M192.5,72.9c0-0.3,0-0.6,0-0.9s0-0.4-0.1-0.6c0.1,0,0.2,0,0.3,0s0.2,0,0.3,0s0.2,0,0.2,0s0.1,0,0.2,0
			c0.1,0,0.2,0,0.2,0s0,0.1-0.1,0.2c0,0-0.1,0.1-0.1,0.2s0,0.2,0,0.3v0.6c0.3,0,0.6,0,0.8,0s0.4,0,0.6-0.1v0.9
			c-0.2,0-0.4-0.1-0.6-0.1c-0.2,0-0.5,0-0.8,0V77c0,0.2,0,0.3-0.1,0.4s-0.1,0.2-0.3,0.3c-0.1,0.1-0.3,0.1-0.5,0.2s-0.5,0.1-0.9,0.2
			c0-0.1,0-0.3-0.1-0.5s-0.2-0.4-0.3-0.5c0.5,0.1,0.9,0.1,1.1,0c0.2-0.1,0.3-0.2,0.3-0.5v-2.8c-0.2,0.4-0.3,0.8-0.5,1.1
			c-0.2,0.3-0.4,0.6-0.6,0.8c-0.2,0.3-0.5,0.5-0.7,0.8c-0.3,0.3-0.6,0.6-1,0.9c-0.1-0.1-0.2-0.2-0.3-0.3c-0.1-0.1-0.3-0.2-0.4-0.4
			c0.4-0.2,0.7-0.4,1-0.7c0.3-0.3,0.6-0.5,0.8-0.8c0.3-0.3,0.5-0.6,0.7-0.8s0.3-0.6,0.5-0.8c-0.7,0-1.2,0-1.6,0
			c-0.4,0-0.7,0-0.9,0.1v-0.9c0.1,0,0.3,0,0.4,0c0.2,0,0.4,0,0.6,0c0.2,0,0.5,0,0.9,0C191.7,72.9,192.1,72.9,192.5,72.9z"/>
		<path class="st3" d="M201.6,73.9c0.3,0.3,0.5,0.6,0.6,0.8c0.2,0.2,0.3,0.5,0.4,0.7s0.1,0.4,0.2,0.7s0,0.5,0,0.7
			c-0.1,0.4-0.2,0.8-0.5,1.1c-0.3,0.3-0.7,0.5-1.4,0.6c-0.1-0.2-0.1-0.4-0.2-0.6c-0.1-0.2-0.2-0.3-0.3-0.5c0.3,0,0.5,0,0.7-0.1
			s0.3-0.1,0.4-0.1c0.1-0.1,0.2-0.1,0.2-0.2s0.1-0.2,0.1-0.4c0-0.4-0.1-0.8-0.2-1.2c-0.2-0.4-0.5-0.8-1-1.2l1-2.9h-1.9v9h-1
			c0-0.3,0-0.5,0-0.7s0-0.5,0-0.7s0-0.4,0-0.6s0-0.4,0-0.7v-5.5c0-0.3,0-0.6,0-0.9s0-0.5-0.1-0.8c0.3,0,0.6,0.1,0.9,0.1s0.7,0,1.2,0
			s0.9,0,1.2,0s0.6,0,0.9-0.1L201.6,73.9z M205.3,75.3c-0.1,0.5-0.2,1-0.4,1.5c-0.2,0.4-0.4,0.9-0.6,1.3s-0.5,0.8-0.9,1.1
			c-0.3,0.3-0.7,0.7-1.2,1c-0.1-0.2-0.2-0.3-0.4-0.4s-0.3-0.2-0.5-0.3c0.5-0.3,0.9-0.6,1.3-0.9c0.4-0.3,0.7-0.7,0.9-1.1
			s0.5-0.9,0.6-1.4s0.3-1.2,0.3-1.9c0.1-0.8,0.1-1.5,0.1-2.2s0-1.3,0-2c0.2,0,0.4,0.1,0.7,0.1c0.2,0,0.5,0,0.7,0.1
			c0.2,0,0.2,0.1,0,0.2c-0.1,0.1-0.2,0.4-0.3,0.8c0,0.2,0,0.5-0.1,0.8c0,0.3-0.1,0.6-0.1,1c0,0.6,0.1,1.1,0.2,1.5
			c0.1,0.4,0.2,0.8,0.3,1.2c0.1,0.4,0.2,0.7,0.4,1c0.1,0.3,0.3,0.6,0.5,0.9s0.5,0.6,0.8,0.9s0.7,0.5,1.2,0.8
			c-0.1,0.1-0.2,0.2-0.3,0.3c-0.1,0.1-0.1,0.2-0.2,0.3c-0.1,0.1-0.1,0.2-0.2,0.3c0,0.1-0.1,0.2-0.1,0.3c-0.4-0.2-0.8-0.6-1.2-1
			s-0.7-0.9-0.9-1.4c-0.1-0.3-0.3-0.7-0.4-1C205.5,76.3,205.4,75.8,205.3,75.3z"/>
	</g>
</g>
</svg>
